<svg width="134" height="78" viewBox="0 0 134 78" fill="none" xmlns="http://www.w3.org/2000/svg">
<path fill-rule="evenodd" clip-rule="evenodd" d="M32.8055 0L39.8945 7.085L32.8055 14.17L25.7166 7.085L32.8055 0Z" fill="#969698"/>
<path d="M45.3251 11.2667L18.0856 39.1408C14.1184 44.3625 16.5247 51.415 19.0503 52.91C27.4726 43.3875 35.6347 34.385 44.5013 25.5233C44.5013 25.5233 49.8777 31.005 50.5389 31.8933L24.2316 58.3917C25.7383 59.9083 28.253 60.9808 30.7461 61.23C36.4693 61.3383 40.339 56.3333 43.2115 53.2892L54.7013 41.1775C54.9939 42.64 55.1457 44.1242 55.1457 45.6192C55.124 51.7292 52.6635 57.5683 48.3277 61.88C46.0947 64.1117 43.5908 65.78 40.7943 66.8958C38.0627 68.0008 35.1361 68.5642 32.1877 68.5642C26.0743 68.5317 20.2318 66.0833 15.9286 61.75C13.6956 59.5183 12.0264 57.005 10.9099 54.2208C8.67698 48.6958 8.67698 42.5317 10.9099 37.0067C12.0264 34.2225 13.6956 31.7092 15.9286 29.4775C20.156 25.4583 23.798 21.385 27.8194 17.3658L21.099 10.6383L9.56581 22.165C6.37901 25.35 3.9835 28.9358 2.3901 32.9225C-0.796699 40.8092 -0.796699 49.6167 2.3901 57.5033C3.9835 61.49 6.37901 65.0758 9.56581 68.2608C12.7526 71.4458 16.3621 73.8617 20.4053 75.5192C24.4484 77.1658 28.5782 78 32.7839 78C37.0005 78 41.1736 77.1875 45.0758 75.6058C49.0648 74.0133 52.6418 71.6192 55.8286 68.4342C59.0154 65.2492 61.4326 61.6308 63.0802 57.59C64.7278 53.5492 65.5516 49.4217 65.5516 45.2075C65.5516 40.9933 64.7278 36.8658 63.0802 32.825C61.4326 28.7842 59.0154 25.1658 55.8286 21.9808C52.2732 18.3517 48.9672 14.9175 45.2926 11.245L45.3251 11.2667Z" fill="#B0BF36"/>
<path d="M83.2416 19.63H79.3069V40.1808H83.2416V19.63Z" fill="white"/>
<path d="M100.812 40.5275C104.194 40.5275 107.489 39.4117 110.156 37.3317V28.6975H100.617V31.8717H106.351V35.685C104.975 36.6275 103.089 37.245 100.942 37.245C96.3682 37.245 93.3223 34.1358 93.3223 29.9V29.8458C93.3223 25.8592 96.5633 22.62 100.552 22.62C100.563 22.62 100.574 22.62 100.585 22.62C103.403 22.62 105.126 23.4433 106.861 24.7975L109.354 22.0675C107.045 20.28 104.617 19.2725 100.747 19.2725C93.9618 19.2725 89.1924 24.1475 89.1924 29.9V29.9542C89.1924 35.945 93.7992 40.5275 100.812 40.5275Z" fill="white"/>
<path d="M116.248 40.1808H133.016V36.9525H120.182V31.46H131.423V28.1992H120.182V22.8583H132.854V19.63H116.237V40.1808H116.248Z" fill="white"/>
<path d="M86.656 58.7275C88.7697 58.7275 90.8292 58.0342 92.4985 56.7233V51.3283H86.5368V53.3108H90.1138V55.6942C89.2575 56.2792 88.076 56.6692 86.7319 56.6692C83.8703 56.6692 81.9734 54.7192 81.9734 52.0867V52.0542C81.9734 49.5625 84.0003 47.5367 86.4934 47.5367C86.4934 47.5367 86.5043 47.5367 86.5151 47.5367C88.2711 47.5367 89.355 48.0458 90.439 48.8908L91.9998 47.1792C90.5582 46.0633 89.0407 45.435 86.6235 45.435C82.3853 45.435 79.4044 48.4792 79.4044 52.0758V52.1083C79.4044 55.8567 82.2877 58.7167 86.6668 58.7167L86.656 58.7275Z" fill="#B0BF36"/>
<path d="M100.78 58.7275C105.083 58.7275 108.118 55.6833 108.118 52.0867V52.0542C108.118 48.4358 105.116 45.4458 100.812 45.4458C96.5091 45.4458 93.4741 48.49 93.4741 52.0867V52.1192C93.4741 55.7375 96.4766 58.7275 100.78 58.7275ZM100.823 56.6367C98.0266 56.6367 96.0647 54.5783 96.0647 52.0867V52.0542C96.0647 49.5625 98.0049 47.5367 100.791 47.5367C103.576 47.5367 105.549 49.595 105.549 52.0867V52.1192C105.549 54.6108 103.609 56.6367 100.823 56.6367Z" fill="#B0BF36"/>
<path d="M109.495 58.5108H119.315V56.4525H111.955V45.6625H109.495V58.5108Z" fill="#B0BF36"/>
<path d="M120.258 58.5108H125.483C129.884 58.5108 132.93 55.705 132.93 52.0867V52.0542C132.93 48.4358 129.884 45.6733 125.483 45.6733H120.258V58.5217V58.5108ZM125.483 47.7208C128.42 47.7208 130.339 49.5733 130.339 52.0867V52.1192C130.339 54.6325 128.42 56.4525 125.483 56.4525H122.719V47.7208H125.483Z" fill="#B0BF36"/>
</svg>
